<svg version="1.1" xmlns="http://www.w3.org/2000/svg" xmlns:xlink="http://www.w3.org/1999/xlink" width="92.58442" height="90.67546" viewBox="0,0,92.58442,90.67546"><g transform="translate(-189.8004,-127.1508)"><g data-paper-data="{&quot;isPaintingLayer&quot;:true}" fill-rule="nonzero" stroke="none" stroke-linecap="butt" stroke-linejoin="miter" stroke-miterlimit="10" stroke-dasharray="" stroke-dashoffset="0" style="mix-blend-mode: normal"><path d="M282.38482,172.48853c0,25.03934 -20.72573,45.33773 -46.29221,45.33773c-25.56648,0 -46.29221,-20.29839 -46.29221,-45.33773c0,-25.03934 20.72573,-45.33773 46.29221,-45.33773c25.56648,0 46.29221,20.29839 46.29221,45.33773z" fill="#ff4f4f" stroke-width="0"/><path d="M270.97153,173.45171c0,14.91076 -14.57041,26.99833 -32.54393,26.99833c-17.97352,0 -32.54393,-12.08756 -32.54393,-26.99833c0,-14.91076 14.57041,-26.99833 32.54393,-26.99833c17.97352,0 32.54393,12.08756 32.54393,26.99833z" fill="#8c2b2b" stroke-width="0"/><path d="M267.76092,169.8033c0,14.99137 -14.30906,27.14427 -31.96018,27.14427c-17.65112,0 -31.96018,-12.1529 -31.96018,-27.14427c0,-14.99137 14.30907,-27.14426 31.96018,-27.14426c17.65112,0 31.96018,12.1529 31.96018,27.14426z" fill="#a93434" stroke-width="0"/><path d="M264.03472,169.65736c0,12.654 -12.42951,22.91209 -27.7621,22.91209c-15.33258,0 -27.7621,-10.25809 -27.7621,-22.91209c0,-12.654 12.42952,-22.9121 27.7621,-22.9121c15.33258,0 27.7621,10.2581 27.7621,22.9121z" fill="#c93e3e" stroke-width="0"/><text transform="translate(211.7534,178.82544) scale(0.5,0.5)" font-size="40" xml:space="preserve" fill="#a41010" fill-rule="nonzero" stroke="none" stroke-width="1" stroke-linecap="butt" stroke-linejoin="miter" stroke-miterlimit="10" stroke-dasharray="" stroke-dashoffset="0" font-family="Pixel" font-weight="normal" text-anchor="start" style="mix-blend-mode: normal"><tspan x="0" dy="0">TAP!</tspan></text></g></g></svg>